<mxfile host="app.diagrams.net" agent="Mozilla/5.0 (Windows NT 10.0; Win64; x64) AppleWebKit/537.36 (KHTML, like Gecko) Chrome/129.0.0.0 Safari/537.36" version="26.2.13">
  <diagram name="第 1 页" id="AV9-eu2o9pZ8L2p3T6uN">
    <mxGraphModel dx="1414" dy="761" grid="1" gridSize="10" guides="1" tooltips="1" connect="1" arrows="1" fold="1" page="1" pageScale="1" pageWidth="827" pageHeight="1169" math="0" shadow="0">
      <root>
        <mxCell id="0" />
        <mxCell id="1" parent="0" />
        <mxCell id="DeLsAfoHwqe5NwNkU_xb-3" style="edgeStyle=orthogonalEdgeStyle;rounded=0;orthogonalLoop=1;jettySize=auto;html=1;entryX=0;entryY=0.5;entryDx=0;entryDy=0;" edge="1" parent="1" source="DeLsAfoHwqe5NwNkU_xb-1" target="DeLsAfoHwqe5NwNkU_xb-2">
          <mxGeometry relative="1" as="geometry" />
        </mxCell>
        <mxCell id="DeLsAfoHwqe5NwNkU_xb-1" value="x" style="rounded=0;whiteSpace=wrap;html=1;" vertex="1" parent="1">
          <mxGeometry x="70" y="290" width="120" height="60" as="geometry" />
        </mxCell>
        <mxCell id="DeLsAfoHwqe5NwNkU_xb-8" style="edgeStyle=orthogonalEdgeStyle;rounded=0;orthogonalLoop=1;jettySize=auto;html=1;entryX=0;entryY=0.5;entryDx=0;entryDy=0;" edge="1" parent="1" source="DeLsAfoHwqe5NwNkU_xb-2" target="DeLsAfoHwqe5NwNkU_xb-6">
          <mxGeometry relative="1" as="geometry" />
        </mxCell>
        <mxCell id="DeLsAfoHwqe5NwNkU_xb-9" style="edgeStyle=orthogonalEdgeStyle;rounded=0;orthogonalLoop=1;jettySize=auto;html=1;entryX=0;entryY=0.5;entryDx=0;entryDy=0;" edge="1" parent="1" source="DeLsAfoHwqe5NwNkU_xb-2" target="DeLsAfoHwqe5NwNkU_xb-7">
          <mxGeometry relative="1" as="geometry" />
        </mxCell>
        <mxCell id="DeLsAfoHwqe5NwNkU_xb-2" value="in_proj" style="rounded=0;whiteSpace=wrap;html=1;" vertex="1" parent="1">
          <mxGeometry x="260" y="290" width="120" height="60" as="geometry" />
        </mxCell>
        <mxCell id="DeLsAfoHwqe5NwNkU_xb-4" value="n 2c t v" style="text;html=1;align=center;verticalAlign=middle;resizable=0;points=[];autosize=1;strokeColor=none;fillColor=none;" vertex="1" parent="1">
          <mxGeometry x="280" y="220" width="60" height="30" as="geometry" />
        </mxCell>
        <mxCell id="DeLsAfoHwqe5NwNkU_xb-6" value="atc(z)" style="rounded=0;whiteSpace=wrap;html=1;" vertex="1" parent="1">
          <mxGeometry x="450" y="220" width="120" height="60" as="geometry" />
        </mxCell>
        <mxCell id="DeLsAfoHwqe5NwNkU_xb-7" value="x" style="rounded=0;whiteSpace=wrap;html=1;" vertex="1" parent="1">
          <mxGeometry x="450" y="350" width="120" height="60" as="geometry" />
        </mxCell>
        <mxCell id="DeLsAfoHwqe5NwNkU_xb-10" value="n c t v" style="text;html=1;align=center;verticalAlign=middle;resizable=0;points=[];autosize=1;strokeColor=none;fillColor=none;" vertex="1" parent="1">
          <mxGeometry x="480" y="180" width="60" height="30" as="geometry" />
        </mxCell>
        <mxCell id="DeLsAfoHwqe5NwNkU_xb-11" value="n c t v" style="text;html=1;align=center;verticalAlign=middle;resizable=0;points=[];autosize=1;strokeColor=none;fillColor=none;" vertex="1" parent="1">
          <mxGeometry x="500" y="310" width="60" height="30" as="geometry" />
        </mxCell>
      </root>
    </mxGraphModel>
  </diagram>
</mxfile>
